<svg xmlns="http://www.w3.org/2000/svg" viewBox="0 0 64 64" role="img" aria-label="Gentle Hands Care logo">
  <defs>
    <linearGradient id="ghc-grad" x1="0" y1="0" x2="1" y2="1">
      <stop offset="0" stop-color="#2a7d6f"/>
      <stop offset="1" stop-color="#1f5d53"/>
    </linearGradient>
  </defs>
  <!-- Rounded badge -->
  <rect x="2" y="2" width="60" height="60" rx="16" fill="url(#ghc-grad)"/>
  <!-- Cupped hand -->
  <path d="M16 40c0-6 4-10 9-10 2 0 3.5.7 5 2 1.5-1.3 3-2 5-2 5 0 9 4 9 10 0 2-1.6 3.6-3.6 3.6H19.6C17.6 43.6 16 42 16 40z"
        fill="#ffffff" opacity="0.95"/>
  <!-- Heart held above the hand -->
  <path d="M32 30c-1.3-3-7-2.6-7 1.7 0 2.8 3.6 5.3 7 7.3 3.4-2 7-4.5 7-7.3 0-4.3-5.7-4.7-7-1.7z"
        fill="#e8a13a"/>
</svg>
